<svg xmlns="http://www.w3.org/2000/svg" xmlns:xlink="http://www.w3.org/1999/xlink" version="1.1" x="0px" y="0px" viewBox="0 0 100 125" style="enable-background:new 0 0 100 100;" xml:space="preserve"><path d="M50.7495117,10.3378906c-0.3798828-0.4296875-1.1191406-0.4296875-1.4990234,0  c-1.1967773,1.3554688-29.3037109,33.3710938-29.3037109,49.6083984c0,16.5712891,13.4819336,30.0527344,30.0532227,30.0527344  s30.0532227-13.4814453,30.0532227-30.0527344C80.0532227,43.7089844,51.9462891,11.6933594,50.7495117,10.3378906z M50,87.9990234  c-15.46875,0-28.0532227-12.5839844-28.0532227-28.0527344c0-14.0625,23.5170898-42.1357422,28.0532227-47.4189453  c4.5361328,5.2832031,28.0532227,33.3564453,28.0532227,47.4189453C78.0532227,75.4150391,65.46875,87.9990234,50,87.9990234z"/><path d="M70.2758789,58.6582031c-0.5522461,0-1,0.4472656-1,1c0,10.6289062-8.6469727,19.2763672-19.2758789,19.2763672  c-0.5522461,0-1,0.4472656-1,1s0.4477539,1,1,1c11.7314453,0,21.2758789-9.5449219,21.2758789-21.2763672  C71.2758789,59.1054688,70.828125,58.6582031,70.2758789,58.6582031z"/><text x="0" y="115" fill="#000000" font-size="5px" font-weight="bold" font-family="'Helvetica Neue', Helvetica, Arial-Unicode, Arial, Sans-serif">Created by Made x Made</text><text x="0" y="120" fill="#000000" font-size="5px" font-weight="bold" font-family="'Helvetica Neue', Helvetica, Arial-Unicode, Arial, Sans-serif">from the Noun Project</text></svg>