<svg xmlns="http://www.w3.org/2000/svg" xmlns:xlink="http://www.w3.org/1999/xlink" xmlns:a="http://ns.adobe.com/AdobeSVGViewerExtensions/3.0/" version="1.1" x="0px" y="0px" viewBox="-14.3 -15.4 100 125" overflow="visible" enable-background="new -14.3 -15.4 100 100" xml:space="preserve"><path d="M71.1,40.2c-1.7-1.4-3.3-6.4-3.4-7.1c0,0,0-0.1,0-0.1c-0.2-1.9-1.2-3.8-2.7-5.2c-1.6-1.5-3.6-2.2-5.5-2c0,0,0,0-0.1,0  L51,27.7c-0.2-0.3-0.5-0.5-0.8-0.7l6-2.9c0,0,0,0,0,0c1.6-0.9,2.6-2.6,3-4.6c0.3-1.9,0-3.9-0.9-5.5c0,0,0-0.1,0-0.1c0,0,0,0,0,0  c-0.4-0.7-2.4-5.7-2-7.7c0-0.2,0-0.5-0.2-0.6c-0.2-0.1-0.4-0.2-0.6-0.1c-1.9,0.7-6.7-0.1-7.4-0.2c0,0-0.1,0-0.1,0  c-1.7-0.6-3.7-0.7-5.6,0c-2,0.7-3.4,2-4.1,3.7c0,0,0,0,0,0.1l-1.2,4.2c-0.1-0.1-0.2-0.2-0.3-0.3l0.3-3.4c0,0,0,0,0-0.1  c0-1.8-0.9-3.6-2.4-5c-1.5-1.3-3.4-2-5.2-2c0,0-0.1,0-0.1,0c0,0,0,0,0,0c-0.8-0.1-6.1-0.9-7.6-2.2C21.7,0,21.5,0,21.3,0  c-0.2,0.1-0.4,0.3-0.4,0.5c-0.3,2-3.5,5.7-4,6.2c0,0,0,0-0.1,0.1c-1.4,1.1-2.5,2.9-2.9,4.8c-0.4,2,0,4,1.1,5.4c0,0,0,0,0,0l3.1,3.3  c-0.9-0.3-1.8-0.3-2.8-0.2c-1.5,0.3-2.8,1.1-3.7,2.2c0,0,0,0,0,0.1c-0.4,0.4-3.4,3.2-4.8,3.4c-0.2,0-0.4,0.2-0.5,0.4s0,0.5,0.1,0.6  c1,1.1,1.7,4.7,1.7,5.2c0,0,0,0,0,0.1c0,0.2,0,0.5,0,0.7l-1.1,0.1c0,0,0,0-0.1,0c-1.9,0.3-3.6,1.6-4.8,3.5c-1.1,1.8-1.5,3.9-1.2,5.8  c0,0,0,0.1,0,0.1c0,0,0,0,0,0c0.1,0.8,0.2,6.7-1,8.5c-0.1,0.2-0.1,0.4,0,0.6c0.1,0.2,0.3,0.3,0.5,0.3c0,0,0,0,0,0  c2.2,0,6.7,2.7,7.3,3.1c0,0,0,0,0.1,0.1c1.5,1.3,3.5,2.1,5.5,2.2c0.1,0,0.2,0,0.3,0c2.1,0,3.9-0.8,5.2-2.1c0,0,0,0,0,0l1.5-2  c0.6,1.1,0.9,1.9,0.9,2.4c0,0.2,0.1,0.4,0.3,0.5c0.1,0,0.2,0.1,0.3,0.1c0.1,0,0.2,0,0.3-0.1c0.2-0.1,0.3-0.2,0.6-0.3l-0.9,2.4  c0,0,0,0,0,0.1c-0.5,1.7-0.1,3.5,1,5.1c1,1.5,2.6,2.6,4.2,3.1c0,0,0.1,0,0.1,0c0,0,0,0,0,0c0.7,0.2,5.3,2.3,6.3,3.9  c0.1,0.2,0.3,0.3,0.5,0.3c0,0,0,0,0,0c0.2,0,0.4-0.2,0.5-0.4c0.4-0.9,1.7-2.1,3.5-3.5c0.6,0.1,1.2,0.1,1.8,0.1c0,0,0.1,0,0.1,0  c0,0,0,0,0,0c0,0,0,0,0,0c0.9,0,6.6,0.5,8.2,1.8c0.1,0.1,0.2,0.1,0.4,0.1c0.1,0,0.2,0,0.2,0c0.2-0.1,0.4-0.3,0.4-0.5  c0.2-2.2,3.3-6.4,3.8-6.9c0,0,0,0,0.1-0.1c1.4-1.3,2.4-3.2,2.7-5.2c0.3-2.1-0.2-4-1.4-5.5c0.9,0.5,1.9,0.7,3,0.7  c0.8,0,1.6-0.1,2.5-0.4c1.9-0.6,3.6-1.9,4.7-3.6c0,0,0-0.1,0.1-0.1c0,0,0,0,0,0c0.5-0.7,4.2-5.1,6.2-5.7c0.2-0.1,0.4-0.2,0.4-0.5  C71.4,40.6,71.3,40.3,71.1,40.2z M50.8,38.4c0,0,0,0.1-0.1,0.1c0,0,0,0,0,0c-0.4,1-1.1,1.8-2.1,2.3c-1,0.5-2,0.6-2.8,0.3L43.4,40  c0,0,0,0,0,0l-0.9-0.4c0,0,0-0.1,0-0.1c0-0.9-0.2-1.7-0.5-2.5c1.3-0.5,2.3-1.5,2.8-2.8l6.6,0.2c0,0,0,0,0,0c0.1,0,0.2-0.1,0.2-0.2  c0-0.1-0.1-0.2-0.2-0.2L45,33.8c0.1-0.3,0.2-0.5,0.2-0.8c0,0,0,0,0,0c0-0.3,0.1-0.5,0.1-0.8c0-0.1,0-0.2,0-0.2l0-2.8  c0-0.2-0.1-0.5-0.4-0.6L44,28.2l2.4-1c1.5-0.4,3.1,0.4,3.9,1.5l0,0c0.4,0.4,0.6,0.9,0.8,1.5v0c0,0,0,0,0,0l0,0c0,0,0,0.1,0,0.1  c0.3,0.6,1.4,2.8,2.7,4C52.4,35.5,51.1,37.9,50.8,38.4z M38,45.5l-4-1.5c-1.8-0.8-3-2.6-3-4.6c0-0.3,0-0.6,0.1-0.9c0,0,0.1,0,0.1,0  c1,0,1.9-0.2,2.8-0.6c0.1,0,0.1-0.1,0.2-0.1c0,0,0,0,0,0c0.5,0,1-0.1,1.5-0.2l1.3,3.8c0,0.1,0.1,0.1,0.2,0.1c0,0,0,0,0.1,0  c0.1,0,0.2-0.1,0.1-0.2l-1.3-3.8c0.4-0.2,0.8-0.4,1.2-0.8c0.8,0.5,1.8,0.8,2.7,0.8c0.3,0,0.5,0,0.8-0.1c0.3,0.7,0.5,1.4,0.5,2.1  c0,0.2,0,0.5-0.1,0.7c0,0,0,0,0,0c-0.1,0.5-0.2,1-0.5,1.5L38,45.5z M26.5,33.8C26.5,33.8,26.5,33.8,26.5,33.8l-1.4-4.3l1.4-0.6  c0,0,0,0,0,0l3.6-1.6c0.4-0.1,0.9-0.2,1.3-0.2c1.4,0,2.7,0.6,3.6,1.5c-0.2,0-0.4,0-0.7,0c-2.5,0-4.6,2.1-4.6,4.6  c0,1.8,1,3.3,2.4,4.1c-0.3,0-0.5,0.1-0.8,0.1c-0.2,0-0.4,0-0.5,0c0,0,0,0,0,0C28.8,37,27.1,35.7,26.5,33.8z M35.6,13.3  c0,0.2,0.2,0.3,0.4,0.4c0.3,0.3,0.7,0.7,1,1c0.1,0.1,0.1,0.1,0.2,0.2c0.9,0.8,1.9,1.4,2.2,1.6c0,0,0.1,0.1,0.1,0.1  c0.9,0.4,1.7,1.2,2.1,2.2c0.4,1,0.5,2,0.1,2.8l-2,3.3c-0.1,0-0.1,0.1-0.2,0.2l-1.3,2.3c-0.7,0.3-1.4,0.7-1.9,1.2  c-0.6-0.8-1.4-1.5-2.3-1.9l1.1-11.2c0-0.1-0.1-0.2-0.2-0.2c-0.1,0-0.2,0.1-0.2,0.2l-1.1,11.1c-0.8-0.3-1.6-0.5-2.5-0.5  c-0.4,0-0.9,0-1.3,0.1l-1.9-6c-0.2-0.9,0.1-1.9,0.7-2.7c0.6-0.9,1.6-1.5,2.6-1.7c0,0,0,0,0,0c0,0,0,0,0,0c0,0,0.1,0,0.1,0  C32,15.3,34.3,14.3,35.6,13.3C35.6,13.2,35.6,13.2,35.6,13.3z M41.5,28.5c0.1,0,0.1,0,0.2,0l0.4,0.2l1.9,0.8l0,3.3  c-0.3,1.9-1.9,3.3-3.9,3.3c-0.7,0-1.3-0.2-1.9-0.5c0.2-0.4,0.4-0.8,0.5-1.2l0,0l0,0c0.1-0.4,0.2-0.9,0.2-1.3c0-1.3-0.5-2.5-1.4-3.3  c0,0,0,0,0,0c-0.1-0.1-0.2-0.2-0.3-0.3c0.4-0.5,1-0.8,1.6-1.1c0,0,0,0,0,0c0.1,0,0.3,0,0.4-0.1c0.3-0.1,0.6-0.1,1-0.1  C40.6,28.2,41.1,28.3,41.5,28.5z M35.5,36.3C35.5,36.3,35.5,36.3,35.5,36.3c-0.4,0.2-0.8,0.2-1.3,0.2c-1.9,0-3.4-1.5-3.4-3.4  c0-0.5,0.1-1,0.3-1.5c0.7,0.2,1.8,0.6,2.2,1.5c0,0.1,0.1,0.1,0.2,0.1c0,0,0,0,0.1,0c0,0,2.3-0.9,3.8-1.1c0.1,0.3,0.1,0.6,0.1,0.9  c0,0.3,0,0.7-0.1,1C37.2,35.1,36.5,35.9,35.5,36.3z M36.6,30.7L36.6,30.7c0.3,0.3,0.6,0.7,0.8,1.1c-1.3,0.2-3.1,0.8-3.6,1.1  c-0.5-1-1.6-1.4-2.3-1.6c0.6-0.9,1.6-1.5,2.8-1.5C35.2,29.8,36,30.1,36.6,30.7z M39.6,9.3c0.5-1.4,1.7-2.4,3.3-3  c1.6-0.5,3.3-0.5,4.8,0c0,0,0.1,0,0.1,0c0.8,0.2,4.8,0.9,7.2,0.5c0.1,2.7,1.9,6.9,2.2,7.5c0,0,0,0.1,0,0.1c0,0,0,0,0,0  c0.8,1.4,1.1,3.1,0.8,4.7c-0.3,1.7-1.1,3-2.4,3.8L49,26.2c-1-0.4-2-0.5-3-0.2c0,0,0,0-0.1,0l-3.5,1.4l-1-0.5c-0.2-0.1-0.4-0.1-0.5,0  c-0.3,0-0.5-0.1-0.8-0.1c0,0-0.1,0-0.1,0l0.7-1.2c0.1,0,0.1-0.1,0.2-0.2l2.1-3.5c0,0,0,0,0-0.1c0-0.1,0.1-0.2,0.1-0.3L52.7,10  c0.1-0.1,0.1-0.2,0-0.3c-0.1-0.1-0.2-0.1-0.3,0l-9.1,11.1c0.1-0.9,0-1.8-0.4-2.7c-0.5-1.2-1.5-2.2-2.7-2.8c0,0,0,0-0.1,0  c-0.3-0.2-1.1-0.7-1.9-1.3L39.6,9.3z M15.1,11.8c0.3-1.6,1.2-3.1,2.5-4.1c0,0,0.1-0.1,0.1-0.1c0.6-0.6,3.2-3.6,4.1-6  c2.3,1.3,6.9,1.9,7.6,2c0,0,0.1,0,0.1,0c1.6,0,3.2,0.6,4.5,1.7c1.3,1.1,2,2.5,2,4l-0.2,2.2c0,0,0,0,0,0c-0.2,0-0.4,0.1-0.6,0.3  c-0.7,1-3.6,2.4-4.1,2.5c0,0,0,0-0.1,0c-1.2,0.3-2.4,1.1-3.2,2.1c-0.1,0.1-0.2,0.3-0.3,0.5L23.3,5.2c0-0.1-0.1-0.2-0.2-0.1  c-0.1,0-0.2,0.1-0.1,0.2l4.3,12c-0.4,0.9-0.6,1.9-0.4,2.9c0,0,0,0,0,0.1l1.9,6c-0.3,0.1-0.5,0.2-0.8,0.4c0,0-0.1,0.1-0.1,0.1  l-1.4,0.6L16,16.2C15.1,15,14.8,13.4,15.1,11.8z M7.8,26.7c1.9-0.8,4.2-3.1,4.7-3.5c0,0,0,0,0.1-0.1c0,0,0,0,0,0  c0.7-0.9,1.8-1.6,3-1.8c1.2-0.2,2.4,0,3.2,0.7l6.3,6.1l-1,0.5c-0.3,0.1-0.4,0.5-0.3,0.8l1,3l-14.3-4.9c-0.1,0-0.2,0-0.2,0.1  c0,0.1,0,0.2,0.1,0.2l14.5,5l0.5,1.4c0,0,0,0,0,0c0.2,0.6,0.5,1.2,0.8,1.7l-12.7,1c-2,0-3.6-1.9-4-3.7l0,0c-0.1-0.4-0.1-0.8-0.1-1.1  c0,0,0,0,0,0c0,0,0-0.1,0-0.1C9.3,31.2,8.7,28.4,7.8,26.7z M18.1,54c-1.1,1.2-2.7,1.8-4.5,1.7c-1.8-0.1-3.5-0.8-4.8-1.9  c0,0-0.1-0.1-0.1-0.1c-0.7-0.5-4.5-2.8-7.1-3.3c1-2.6,0.8-7.6,0.8-8.4c0,0,0-0.1,0-0.1c0,0,0,0,0,0l0,0c-0.5-3.2,1.4-7.3,4.9-7.9  l1.2-0.1c0.7,2.1,2.5,4.1,5,4.1c0,0,0,0,0,0c0,0,0,0,0,0l11.3-0.9L5.2,48.2c-0.1,0.1-0.1,0.2-0.1,0.3c0,0.1,0.1,0.1,0.2,0.1  c0,0,0.1,0,0.1,0l19.4-11l-6.1,4.7c0,0,0,0,0,0c-1,1-1.5,2.3-1.4,3.9c0.1,1.4,0.6,2.8,1.6,3.8c0,0,0,0,0,0.1c0.1,0.1,0.5,0.7,1,1.4  L18.1,54z M21.1,51.3C21.1,51.3,21.1,51.3,21.1,51.3C21.1,51.3,21.1,51.3,21.1,51.3C21.1,51.3,21.1,51.3,21.1,51.3  c-0.6-0.9-1.1-1.7-1.3-2c0,0,0,0,0,0c-1.5-1.6-1.9-4.5-0.2-6l7.9-6.2c0.7,0.6,1.6,1,2.6,1.2c-0.1,0.4-0.1,0.7-0.1,1.1l0,0l-6.3,12.5  c0,0.1,0,0.2,0.1,0.3c0,0,0.1,0,0.1,0c0.1,0,0.1,0,0.2-0.1l6-11.9c0.2,2,1.5,3.8,3.3,4.8l-0.3,5.3c-0.1,0.7-0.4,1.3-0.9,1.8  c-0.1,0-0.1,0.1-0.1,0.1c-1,1-2.7,1.5-4,1.3c0,0-0.1,0-0.1,0c-0.6,0-3.4,0.1-5.1,0.8C22.3,53.5,21.9,52.5,21.1,51.3z M34.1,68.7  c-1.8-1.8-5.7-3.4-6.4-3.7c0,0-0.1,0-0.1,0c-2.7-0.8-5.2-3.8-4.4-6.7l1.2-3.2c1.3-0.2,2.8-0.3,3.1-0.3c0,0,0,0,0.1,0  c1.3,0.2,2.8-0.1,4-0.9l-0.2,5.9c0,0,0,0,0,0.1c0.1,1.9,1.2,3.7,2.9,5c0.7,0.5,1.5,1,2.3,1.2C35.9,66.8,34.8,67.8,34.1,68.7z   M54.7,55.7c-0.2,1.8-1.1,3.4-2.4,4.5c0,0-0.1,0.1-0.1,0.1c-0.6,0.7-3.2,4.1-3.9,6.7c-2.5-1.2-7.4-1.6-8.2-1.6c0,0-0.1,0-0.1,0  c0,0,0,0,0,0c-1.7,0.1-3.5-0.4-4.9-1.5c-1.5-1.1-2.3-2.5-2.4-4.1l0.2-6.9c0.6-0.7,1-1.5,1.2-2.4c0,0,0,0,0-0.1l0.3-4.9  c0,0,0,0,0.1,0l3.6,1.3c0.1,0,0.1,0,0.2,0c0.2,0,0.4-0.1,0.5-0.3l0.3-0.5l7.4,17c0,0.1,0.1,0.1,0.2,0.1c0,0,0.1,0,0.1,0  c0.1,0,0.1-0.2,0.1-0.3l-7.5-17.2l1.4-2c0,0,0,0,0.1-0.1c0.4-0.5,0.8-1,1-1.5c0,0,0,0,0,0c0.1-0.3,0.3-0.6,0.4-0.9l3.9,2.9l7.3,6.8  C54.6,52.2,55,53.9,54.7,55.7z M63.7,46.3C63.7,46.3,63.6,46.3,63.7,46.3L63.7,46.3L63.7,46.3C63.6,46.3,63.6,46.3,63.7,46.3  c-0.9,1.5-2.4,2.7-4.1,3.2c-1.7,0.6-3.4,0.4-4.8-0.4L47,43.3l-0.8-0.7c0.2,0,0.4,0.1,0.6,0.1c0.8,0,1.6-0.2,2.4-0.6  c1.2-0.6,2.1-1.7,2.6-2.9c0,0,0,0,0-0.1c0.1-0.3,0.6-1,1.1-1.8l12.6,2.5c0,0,0,0,0,0c0.1,0,0.2-0.1,0.2-0.2c0-0.1,0-0.2-0.2-0.2  l-12.4-2.5c0.6-0.9,1.3-1.7,1.9-2c0.2-0.1,0.3-0.3,0.3-0.5c0-0.2-0.1-0.4-0.3-0.6c-1.1-0.6-2.6-3.4-2.9-4c0,0,0,0,0-0.1  c-0.1-0.3-0.3-0.7-0.4-1l7.8-1.7c1.6-0.2,3.1,0.4,4.5,1.6c1.3,1.2,2.2,2.9,2.4,4.5c0,0,0,0,0,0c0,0,0,0.1,0,0.1c0.2,0.9,1.5,5,3.2,7  C67.2,41.8,64.1,45.6,63.7,46.3z"/><text x="-14.3" y="99.6" fill="#000000" font-size="5px" font-weight="bold" font-family="'Helvetica Neue', Helvetica, Arial-Unicode, Arial, Sans-serif">Created by Valerie Chauffour</text><text x="-14.3" y="104.6" fill="#000000" font-size="5px" font-weight="bold" font-family="'Helvetica Neue', Helvetica, Arial-Unicode, Arial, Sans-serif">from the Noun Project</text></svg>