<svg xmlns="http://www.w3.org/2000/svg" xmlns:xlink="http://www.w3.org/1999/xlink" xml:space="preserve" version="1.1" style="shape-rendering:geometricPrecision;text-rendering:geometricPrecision;image-rendering:optimizeQuality;" viewBox="0 0 244 305" x="0px" y="0px" fill-rule="evenodd" clip-rule="evenodd"><defs><style type="text/css">
   
    .fil1 {fill:black}
    .fil0 {fill:black;fill-rule:nonzero}
   
  </style></defs><g><path class="fil0" d="M122 62c35,0 64,29 64,64 0,35 -29,64 -64,64 -35,0 -64,-29 -64,-64 0,-35 29,-64 64,-64zm0 4c-33,0 -60,27 -60,60 0,33 27,60 60,60 33,0 60,-27 60,-60 0,-33 -27,-60 -60,-60z"/><path class="fil1" d="M124 8c0,-11 -5,-11 -4,0 0,10 0,43 2,46 1,-3 2,-36 2,-46z"/><path class="fil1" d="M43 40c-8,-8 -11,-5 -3,3 7,7 31,30 34,31 -1,-3 -24,-27 -31,-34z"/><path class="fil1" d="M8 120c-11,-1 -11,4 0,4 10,0 43,0 46,-2 -3,-2 -36,-2 -46,-2z"/><path class="fil1" d="M40 200c-8,8 -5,12 3,4 7,-8 30,-31 31,-34 -3,1 -27,24 -34,30z"/><path class="fil1" d="M120 235c-1,11 4,11 4,0 0,-10 0,-42 -2,-45 -2,3 -2,35 -2,45z"/><path class="fil1" d="M200 204c8,8 12,4 4,-4 -8,-6 -31,-29 -34,-30 1,3 24,26 30,34z"/><path class="fil1" d="M235 124c11,0 11,-5 0,-4 -10,0 -42,0 -45,2 3,1 35,2 45,2z"/><path class="fil1" d="M204 43c8,-8 4,-11 -4,-3 -6,7 -29,31 -30,34 3,-1 26,-24 34,-31z"/></g><text x="0" y="259" fill="#000000" font-size="5px" font-weight="bold" font-family="'Helvetica Neue', Helvetica, Arial-Unicode, Arial, Sans-serif">Created by kareemov</text><text x="0" y="264" fill="#000000" font-size="5px" font-weight="bold" font-family="'Helvetica Neue', Helvetica, Arial-Unicode, Arial, Sans-serif">from the Noun Project</text></svg>